<svg width="501" height="501" viewBox="0 0 501 501" fill="none" xmlns="http://www.w3.org/2000/svg">
<path d="M221.835 26.9509C239.473 16.7674 261.204 16.7674 278.843 26.9509L429.546 113.96C447.185 124.143 458.05 142.963 458.05 163.33V337.348C458.05 357.715 447.185 376.534 429.546 386.718L278.843 473.727C261.204 483.91 239.473 483.91 221.835 473.727L71.1312 386.718C53.4929 376.534 42.6273 357.715 42.6273 337.348V163.33C42.6273 142.963 53.4929 124.143 71.1312 113.96L221.835 26.9509Z" stroke="url(#paint0_linear_861_18824)" stroke-width="18.1764"/>
<path d="M127.719 166.262C123.032 163.541 123.032 156.771 127.719 154.049L233.014 92.9017C243.977 86.5349 257.513 86.5349 268.476 92.9017L373.771 154.049C378.458 156.771 378.458 163.541 373.771 166.262L261.384 231.529C254.806 235.349 246.684 235.349 240.106 231.529L127.719 166.262Z" fill="url(#paint1_linear_861_18824)"/>
<path d="M256.431 257.47C256.431 249.921 260.449 242.942 266.977 239.15L379.364 173.884C384.072 171.15 389.972 174.546 389.972 179.99V302.501C389.972 315.083 383.276 326.714 372.396 333.033L277.647 388.057C268.231 393.524 256.431 386.731 256.431 375.844V257.47Z" fill="url(#paint2_linear_861_18824)"/>
<path d="M112.389 179.99C112.389 174.546 118.289 171.15 122.996 173.884L235.384 239.15C241.912 242.942 245.93 249.921 245.93 257.47V375.844C245.93 386.732 234.13 393.524 224.714 388.057L129.965 333.033C119.085 326.714 112.389 315.083 112.389 302.501V179.99Z" fill="url(#paint3_linear_861_18824)"/>
<defs>
<linearGradient id="paint0_linear_861_18824" x1="654.351" y1="-299.911" x2="731.263" y2="478.735" gradientUnits="userSpaceOnUse">
<stop offset="0.37536" stop-color="#AD07C9"/>
<stop offset="0.715237" stop-color="#6335E5"/>
<stop offset="1" stop-color="#72F6C0"/>
</linearGradient>
<linearGradient id="paint1_linear_861_18824" x1="215.418" y1="100.7" x2="242.98" y2="227.947" gradientUnits="userSpaceOnUse">
<stop stop-color="#AD07C9"/>
<stop offset="1" stop-color="#3E18AB"/>
</linearGradient>
<linearGradient id="paint2_linear_861_18824" x1="390.362" y1="189.037" x2="302.84" y2="417.082" gradientUnits="userSpaceOnUse">
<stop stop-color="#AD07C9"/>
<stop offset="0.461226" stop-color="#3E18AB"/>
<stop offset="1" stop-color="#6AD0BD"/>
</linearGradient>
<linearGradient id="paint3_linear_861_18824" x1="112.388" y1="189.569" x2="215.217" y2="459.256" gradientUnits="userSpaceOnUse">
<stop stop-color="#AD07C9"/>
<stop offset="0.395946" stop-color="#3F19AB"/>
<stop offset="0.752643" stop-color="#72F6C0"/>
</linearGradient>
</defs>
</svg>
